<svg height="512pt" viewBox="0 0 512 512.00034" width="512pt" xmlns="http://www.w3.org/2000/svg"><path d="m507.683594 281.535156c-2.96875-1.441406-6.527344-.808594-8.820313 1.566406l-.386719.398438c-.636718.660156-1.273437 1.316406-1.921874 1.964844-74.445313 74.449218-195.582032 74.449218-270.03125 0-41.554688-41.554688-61.460938-98.902344-54.621094-157.34375.488281-4.191406-2.507813-7.984375-6.699219-8.476563-4.191406-.492187-7.980469 2.511719-8.472656 6.699219-7.386719 63.109375 14.117187 125.042969 58.992187 169.921875 75.703125 75.703125 196.105469 80.128906 277.035156 13.28125-10.113281 44.042969-32.191406 83.914063-64.609374 116.332031-26.542969 26.539063-57.886719 46.058594-93.164063 58.023438-3.992187 1.351562-6.132813 5.6875-4.777344 9.683594 1.078125 3.183593 4.046875 5.1875 7.230469 5.1875.8125 0 1.640625-.128907 2.453125-.40625 37.515625-12.722657 70.84375-33.476563 99.058594-61.6875 40.160156-40.160157 65.390625-91.078126 72.972656-147.25.441406-3.269532-1.269531-6.453126-4.238281-7.894532zm0 0"/><path d="m302.808594 492.386719c-78.9375 15.105469-159.945313-9.757813-216.695313-66.507813-45.679687-45.679687-70.839843-106.417968-70.839843-171.019531s25.160156-125.335937 70.839843-171.015625c32.417969-32.417969 72.292969-54.5 116.34375-64.613281-18.460937 22.371093-32.066406 48.449219-39.742187 76.378906-1.121094 4.070313 1.273437 8.273437 5.339844 9.390625 4.066406 1.117188 8.269531-1.273438 9.386718-5.339844 8.714844-31.707031 25.6875-60.828125 49.082032-84.226562.636718-.632813 1.28125-1.253906 1.921874-1.875l.445313-.429688c2.375-2.296875 3.003906-5.855468 1.5625-8.824218-1.4375-2.96875-4.625-4.675782-7.890625-4.2343755-56.171875 7.5781255-107.089844 32.8124995-147.25 72.9726565-48.566406 48.566406-75.3125 113.136719-75.3125 181.816406 0 68.683594 26.746094 133.253906 75.3125 181.820313 48.707031 48.707031 114.21875 75.320312 181.8125 75.320312 16.132812 0 32.386719-1.515625 48.554688-4.609375 4.144531-.792969 6.859374-4.796875 6.066406-8.9375-.792969-4.144531-4.792969-6.859375-8.9375-6.066406zm0 0"/><path d="m213.410156 105.496094c0 9.152344 6.273438 16.769531 15.257813 18.523437l27.644531 5.402344c12.742188 2.492187 22.585938 12.335937 25.074219 25.078125l5.402343 27.644531c1.757813 8.980469 9.375 15.253907 18.527344 15.253907s16.769532-6.273438 18.527344-15.253907l5.402344-27.644531c2.488281-12.746094 12.332031-22.585938 25.074218-25.078125l27.644532-5.402344c8.984375-1.753906 15.257812-9.375 15.257812-18.527343 0-9.152344-6.273437-16.769532-15.257812-18.523438l-27.644532-5.402344c-12.742187-2.492187-22.585937-12.332031-25.074218-25.078125l-5.402344-27.644531c-1.757812-8.980469-9.375-15.253906-18.527344-15.253906s-16.769531 6.273437-18.527344 15.253906l-5.402343 27.644531c-2.488281 12.746094-12.332031 22.585938-25.074219 25.078125l-27.644531 5.402344c-8.984375 1.753906-15.257813 9.375-15.257813 18.527344zm18.1875-3.535156 27.644532-5.402344c18.871093-3.6875 33.449218-18.265625 37.136718-37.136719l5.402344-27.644531c.492188-2.535156 2.425781-2.914063 3.535156-2.914063 1.105469 0 3.039063.378907 3.535156 2.914063l5.398438 27.644531c3.6875 18.871094 18.269531 33.449219 37.140625 37.136719l27.644531 5.402344c2.53125.496093 2.910156 2.425781 2.910156 3.535156s-.378906 3.039062-2.910156 3.535156l-27.644531 5.402344c-18.875 3.6875-33.453125 18.265625-37.140625 37.136718l-5.398438 27.644532c-.496093 2.53125-2.429687 2.910156-3.535156 2.910156-1.109375 0-3.042968-.378906-3.535156-2.910156l-5.402344-27.644532c-3.6875-18.871093-18.265625-33.449218-37.136718-37.136718l-27.644532-5.402344c-2.535156-.496094-2.914062-2.425781-2.914062-3.535156s.378906-3.042969 2.914062-3.535156zm0 0"/><path d="m374.496094 191.199219-3.488282 17.855469c-1.398437 7.148437-6.917968 12.667968-14.066406 14.066406l-17.855468 3.488281c-7.089844 1.386719-12.042969 7.398437-12.042969 14.621094 0 7.226562 4.953125 13.238281 12.042969 14.625l17.855468 3.488281c7.148438 1.398438 12.667969 6.917969 14.066406 14.0625l3.488282 17.859375c1.386718 7.089844 7.398437 12.039063 14.621094 12.039063 7.222656 0 13.234374-4.949219 14.621093-12.039063l3.488281-17.859375c1.398438-7.148438 6.917969-12.667969 14.066407-14.0625l17.855469-3.492188c7.089843-1.382812 12.042968-7.398437 12.042968-14.621093 0-7.222657-4.953125-13.238281-12.042968-14.621094l-17.855469-3.488281c-7.148438-1.398438-12.667969-6.917969-14.066407-14.066406l-3.488281-17.855469c-1.386719-7.089844-7.398437-12.042969-14.621093-12.042969-7.222657 0-13.234376 4.953125-14.621094 12.042969zm17.742187 20.785156c2.59375 13.277344 12.847657 23.53125 26.125 26.128906l15.953125 3.121094-15.953125 3.117187c-13.277343 2.59375-23.53125 12.847657-26.125 26.125l-3.121093 15.957032-3.121094-15.957032c-2.59375-13.277343-12.847656-23.53125-26.125-26.125l-15.953125-3.121093 15.953125-3.117188c13.277344-2.597656 23.53125-12.851562 26.125-26.128906l3.121094-15.953125zm0 0"/><path d="m85.484375 257.421875c.800781 0 1.621094-.128906 2.425781-.398437 4-1.335938 6.15625-5.664063 4.816406-9.664063l-2.890624-8.640625c-1.339844-4-5.667969-6.160156-9.667969-4.820312-4 1.339843-6.15625 5.667968-4.816407 9.667968l2.890626 8.640625c1.070312 3.195313 4.046874 5.214844 7.242187 5.214844zm0 0"/><path d="m127.578125 243.332031c.804687 0 1.621094-.128906 2.425781-.398437 4-1.335938 6.15625-5.664063 4.816406-9.664063l-2.890624-8.640625c-1.339844-4-5.667969-6.15625-9.667969-4.820312-4 1.339844-6.15625 5.667968-4.816407 9.667968l2.890626 8.640626c1.070312 3.195312 4.046874 5.214843 7.242187 5.214843zm0 0"/><path d="m83.25 292.511719c8.34375 4.160156 17.34375 6.257812 26.402344 6.257812 6.335937 0 12.699218-1.027343 18.882812-3.097656 15.023438-5.027344 27.1875-15.605469 34.257813-29.785156 1.878906-3.773438.34375-8.359375-3.429688-10.242188-3.773437-1.882812-8.363281-.347656-10.242187 3.429688-10.832032 21.730469-37.324219 30.597656-59.058594 19.765625-3.773438-1.882813-8.359375-.34375-10.242188 3.429687-1.882812 3.773438-.347656 8.359375 3.429688 10.242188zm0 0"/></svg>