<svg id="Layer_1" enable-background="new 0 0 512.086 512.086" height="512" viewBox="0 0 512.086 512.086" width="512" xmlns="http://www.w3.org/2000/svg"><path d="m512.086 246.859c-.002-11.549-7.724-15.84-13.7-21.814-43.705-43.705-41.654-116.232 6.326-157.152 9.824-8.378 9.828-23.575.003-31.956-82.371-70.265-209.628-31.251-239.574 71.417-42.847-2.678-84.26 13.133-114.292 42.919-116.849-10.363-191.445 119.733-127.161 215.036.433.648.902 1.272 1.404 1.869 19.354 22.99 47.279 36.606 77.146 37.783l-5.04 15.119c-4.547 13.64 5.663 27.646 19.925 27.646 8.792 0 16.986-5.566 19.919-14.365l9.436-28.307h83.728l-5.009 15.026c-4.547 13.64 5.663 27.646 19.925 27.646 8.792 0 16.987-5.566 19.919-14.365l9.436-28.307h83.728l-5.009 15.025c-4.547 13.64 5.663 27.647 19.925 27.647 8.792 0 16.986-5.565 19.919-14.365l9.436-28.308h13.309c71.635 0 117.528-76.077 85.204-139.15 4.438-3.542 11.099-8.488 11.097-19.044zm-53.413-191.773c-37.93 46.346-43.698 110.39-17.307 162.115-14.064-3.906-28.624-4.433-42.273-2.033-13.142-46.145-47.854-83.064-92.62-99.248 20.596-62.976 93.833-91.984 152.2-60.834zm-42.887 307.968h-309.33c-18.661 0-36.285-8.041-48.526-22.097-44.556-67.626 10.308-158.972 92.884-148.446 47.079 6.06 83.973 46.399 83.973 95.543 0 11.598 9.402 21 21 21s21-9.402 21-21c0-53.977-31.079-100.825-76.278-123.609 61.47-37.101 143-4.193 159.496 67.234-4.155 2.986-8.132 6.328-11.865 10.062-8.2 8.201-8.2 21.498 0 29.698 8.201 8.201 21.498 8.201 29.699 0 33.753-33.753 91.617-9.654 91.617 37.945 0 29.594-24.076 53.67-53.67 53.67z"/><path d="m177.093 438.798c-11.002-3.667-22.895 2.279-26.563 13.282l-10.667 32c-4.547 13.64 5.663 27.646 19.925 27.646 8.792 0 16.986-5.566 19.919-14.365l10.667-32c3.669-11.003-2.278-22.895-13.281-26.563z"/><path d="m305.094 438.798c-11.003-3.668-22.896 2.279-26.563 13.281l-10.667 32c-4.547 13.64 5.663 27.647 19.925 27.647 8.792 0 16.986-5.565 19.919-14.365l10.667-32c3.668-11.002-2.278-22.895-13.281-26.563z"/></svg>