<svg height="511pt" viewBox="0 1 511 511.99899" width="511pt" xmlns="http://www.w3.org/2000/svg"><path d="m485.980469 165.089844c-15.15625-15.476563-34.9375-24.898438-56.28125-26.929688-.691407-5.074218-1.632813-10.144531-2.808594-15.136718-8.125-34.457032-27.894531-65.695313-55.671875-87.960938-28.207031-22.609375-63.6875-35.0625-99.910156-35.0625-34.070313 0-66.585938 10.566406-94.035156 30.558594-3.390626 2.46875-4.136719 7.222656-1.667969 10.613281s7.21875 4.136719 10.613281 1.667969c24.832031-18.089844 54.257812-27.648438 85.089844-27.648438 33.253906 0 64.515625 10.96875 90.40625 31.722656 25.144531 20.15625 43.039062 48.421876 50.390625 79.59375 1.503906 6.386719 2.582031 12.910157 3.199219 19.390626.269531 3.878906 3.457031 6.96875 7.402343 7.058593 19.875.457031 38.492188 8.539063 52.421875 22.757813 13.949219 14.246094 21.632813 33.074218 21.632813 53.011718 0 41.804688-34.019531 75.816407-75.835938 75.816407h-96.894531l15.148438-17.019531c1.988281-2.234376 2.480468-5.429688 1.253906-8.160157-1.222656-2.730469-3.9375-4.484375-6.929688-4.484375h-38.839844l67.269532-128.378906c1.703125-3.253906.835937-7.265625-2.066406-9.519531-2.902344-2.257813-7.003907-2.113281-9.738282.34375l-186.296875 167.21875h-44.804687c-56.980469 0-103.335938-46.351563-103.335938-103.324219 0-56.976562 46.355469-103.332031 103.335938-103.332031 4.90625 0 9.988281.371093 15.101562 1.105469 3.230469.460937 6.398438-1.1875 7.863282-4.101563 5.914062-11.738281 13.417968-22.640625 22.300781-32.394531 2.824219-3.101563 2.597656-7.90625-.503907-10.730469-3.101562-2.824219-7.90625-2.601563-10.730468.5-8.601563 9.445313-16.03125 19.867187-22.136719 31.035156-4.015625-.402343-8-.605469-11.894531-.605469-65.355469 0-118.527344 53.167969-118.527344 118.523438 0 65.351562 53.171875 118.515625 118.527344 118.515625l77.808594.085937-57.519532 66.378907c-1.949218 2.25-2.402344 5.425781-1.167968 8.128906 1.234374 2.707031 3.933593 4.441406 6.910156 4.441406h34.6875l-69.503906 101.335938c-2.074219 3.027343-1.691407 7.101562.910156 9.6875 1.46875 1.457031 3.402344 2.207031 5.355468 2.207031 1.503907 0 3.023438-.449219 4.335938-1.363281l78.773438-54.808594c3.441406-2.398437 4.289062-7.132813 1.894531-10.574219s-7.128907-4.292968-10.574219-1.898437l-44.671875 31.085937 54.167969-78.972656c1.59375-2.324219 1.769531-5.339844.453125-7.835938-1.3125-2.492187-3.898438-4.054687-6.71875-4.054687h-32.476563l57.519532-66.378906c1.949218-2.246094 2.40625-5.425781 1.167968-8.128907-1.234375-2.707031-3.933594-4.441406-6.90625-4.441406h-26.992187l142.4375-127.851562-53.535157 102.171875c-1.234374 2.355469-1.144531 5.183593.230469 7.457031s3.839844 3.664062 6.5 3.664062h34.464844l-70.976563 79.75c-1.988281 2.234376-2.480468 5.429688-1.257812 8.160157 1.226562 2.730469 3.941406 4.488281 6.933594 4.488281h27.175781l-66.199219 46.0625c-3.441406 2.394531-4.292968 7.128906-1.898437 10.570312 2.398437 3.445313 7.132812 4.292969 10.574219 1.898438l86.078124-59.894531c2.722657-1.894531 3.902344-5.339844 2.910157-8.507813-.992188-3.167968-3.929688-5.320312-7.246094-5.320312h-34.46875l42.3125-47.539063h110.414063c50.191406 0 91.027343-40.828125 91.027343-91.007812-.003906-23.941407-9.226562-46.539063-25.976562-63.640625zm0 0"/></svg>