<svg height="512pt" viewBox="0 -69 512 511" width="512pt" xmlns="http://www.w3.org/2000/svg"><path d="m494.476562 269.9375c-9.730468-9.9375-22.285156-16.171875-35.886718-17.9375-.414063-2.667969-.9375-5.328125-1.554688-7.949219-5.382812-22.816406-18.472656-43.5-36.863281-58.242187-2.949219-2.363282-6.03125-4.539063-9.203125-6.5625-1.246094-17.691406-8.714844-34.214844-21.308594-46.902344-12.015625-12.105469-27.554687-19.589844-44.308594-21.460938-.542968-3.710937-1.242187-7.402343-2.101562-11.035156-6.5625-27.824218-22.527344-53.046875-44.953125-71.027344-22.777344-18.261718-51.429687-28.320312-80.679687-28.320312-24.375 0-48.113282 6.828125-68.652344 19.75-3.542969 2.226562-4.605469 6.90625-2.378906 10.449219 2.230468 3.542969 6.910156 4.609375 10.453124 2.378906 18.113282-11.394531 39.0625-17.417969 60.578126-17.417969 26.1875 0 50.808593 8.640625 71.195312 24.984375 19.800781 15.875 33.894531 38.136719 39.683594 62.683594 1.183594 5.007813 2.03125 10.140625 2.519531 15.265625.289063 3.851562 3.460937 6.914062 7.382813 7.003906 27.347656.625 49.851562 19.527344 55.957031 45.015625-12.722657-5.238281-26.445313-8.023437-40.339844-8.023437-38.457031 0-73.269531 20.414062-92.089844 53.617187-2.078125-.164062-4.148437-.25-6.1875-.25-23.953125 0-45.441406 10.710938-59.96875 27.578125h-99.675781c-44.628906 0-80.933594-36.308594-80.933594-80.9375 0-44.636718 36.304688-80.949218 80.933594-80.949218 3.828125 0 7.8125.296874 11.851562.875 3.210938.464843 6.378907-1.183594 7.84375-4.09375 4.65625-9.246094 10.566407-17.832032 17.558594-25.511719 2.816406-3.097657 2.59375-7.890625-.503906-10.707031-3.09375-2.820313-7.886719-2.59375-10.707031.5-6.714844 7.378906-12.546875 15.492187-17.382813 24.179687-2.929687-.265625-5.828125-.398437-8.65625-.398437-52.988281 0-96.097656 43.109374-96.097656 96.101562 0 52.988281 43.109375 96.097656 96.09375 96.097656h89.394531c-5.683593 10.914063-8.917969 23.300782-8.917969 36.433594 0 43.65625 35.515626 79.167969 79.167969 79.167969h118.738281c4.1875 0 7.578126-3.390625 7.578126-7.578125s-3.390626-7.578125-7.578126-7.578125h-118.738281c-35.296875 0-64.007812-28.714844-64.007812-64.011719 0-35.292969 28.710937-64.007812 64.007812-64.007812 3.054688 0 6.207031.230468 9.363281.6875 3.222657.46875 6.390626-1.179688 7.855469-4.089844 15.519531-30.820313 46.582031-49.96875 81.058594-49.96875 20.847656 0 40.445313 6.878906 56.671875 19.886718 15.765625 12.636719 26.984375 30.359376 31.59375 49.898438.941406 3.984375 1.613281 8.0625 2 12.121094.289062 3.851562 3.460938 6.914062 7.382812 7.003906 12.125.277344 23.480469 5.207031 31.980469 13.886719 8.511719 8.691406 13.195313 20.175781 13.195313 32.335937 0 25.507813-20.753906 46.253906-46.261719 46.253906h-45.78125c-4.1875 0-7.582031 3.394532-7.582031 7.582032 0 4.183594 3.394531 7.578125 7.582031 7.578125h45.78125c33.867187 0 61.421875-27.550781 61.421875-61.414063 0-16.148437-6.222656-31.398437-17.523438-42.941406zm0 0"/></svg>